<svg width="77" height="189" viewBox="0 0 77 189" fill="none" xmlns="http://www.w3.org/2000/svg">
<path d="M26.3972 18.0627L27.5839 21.7616C25.0976 20.6519 23.1198 19.2546 21.6506 17.5696C20.2379 15.8845 19.5315 14.0762 19.5315 12.1446C19.5315 8.7745 21.5093 5.89762 25.4649 3.51391C29.4769 1.1713 34.2801 -1.86735e-06 39.8744 -1.62281e-06C43.5474 -1.46226e-06 46.9378 0.534278 50.0458 1.60284C53.2102 2.71249 55.6965 4.19204 57.5048 6.04146C59.313 7.89089 60.2172 9.92526 60.2172 12.1446C60.2172 14.4872 59.1435 16.6448 56.9962 18.6176L56.9962 18.6792C56.6007 19.0902 56.2334 19.5423 55.8943 20.0355C55.5553 20.5286 55.3292 20.8985 55.2162 21.1451L54.9619 21.5767L54.1991 20.7752L50.9781 17.2613C53.8035 16.3161 55.8943 15.1653 57.2505 13.8091C58.6632 12.4939 59.087 11.1788 58.5219 9.86361C57.6743 7.93199 55.075 6.41135 50.7239 5.30169C46.4293 4.19204 41.7674 3.94544 36.7382 4.56192C31.709 5.21949 27.6687 6.55519 24.6172 8.56901C21.5658 10.6239 20.4639 12.6172 21.3115 14.5488C21.9331 16.0284 23.6283 17.1997 26.3972 18.0627Z" fill="#004DFF"/>
<path d="M25.2953 46.2516C24.6737 46.3338 24.0804 46.4365 23.5153 46.5598C23.0068 46.7242 22.5547 46.8886 22.1591 47.053C21.8201 47.2585 21.4811 47.464 21.142 47.6695C20.8595 47.875 20.6334 48.0599 20.4639 48.2243C20.2944 48.4298 20.1531 48.6147 20.0401 48.7791C19.9271 48.9435 19.8423 49.0668 19.7858 49.149C19.7293 49.2723 19.7011 49.334 19.7011 49.334L19.7011 38.9772C19.7576 39.0594 19.8141 39.1621 19.8706 39.2854C19.9271 39.4087 20.0966 39.6142 20.3792 39.9019C20.6617 40.2307 20.9725 40.5184 21.3115 40.7649C21.7071 41.0115 22.2439 41.2581 22.922 41.5047C23.6566 41.7513 24.4477 41.9363 25.2953 42.0595L46.9943 42.0595C47.7854 42.0185 48.6896 41.8952 49.7067 41.6897C50.7804 41.4842 51.854 41.0937 52.9277 40.5184C54.0578 39.943 54.8772 39.2443 55.3858 38.4223C55.9508 37.6004 55.9226 36.4907 55.301 35.0934C54.6794 33.696 53.3797 32.1343 51.402 30.4082L50.1305 29.4218C49.6785 29.093 49.0004 28.9286 48.0962 28.9286L25.2953 28.9286C24.4477 29.0108 23.6566 29.1752 22.922 29.4218C22.2439 29.6684 21.7071 29.915 21.3115 30.1616C20.9725 30.4493 20.6617 30.7164 20.3792 30.963C20.0966 31.2507 19.9271 31.4973 19.8706 31.7028L19.7011 31.9493L19.7011 21.6542C19.7576 21.7364 19.8141 21.8186 19.8706 21.9008C19.9271 22.0241 20.0966 22.2296 20.3792 22.5173C20.6617 22.846 20.9725 23.1337 21.3115 23.3803C21.7071 23.668 22.2439 23.9352 22.922 24.1817C23.6566 24.4283 24.4477 24.5927 25.2953 24.6749L54.1143 24.6749L68.6086 24.6749C70.0778 24.6749 71.2079 24.0174 71.9991 22.7022L72.5924 21.4693L74.4571 24.6749L77 28.9286L69.1172 28.9286L58.6067 28.9286L51.6562 28.9286L51.9953 29.1752C53.521 30.778 54.6512 31.9904 55.3858 32.8124C56.2899 33.7166 56.9115 34.3947 57.2505 34.8468C57.6461 35.2989 58.0699 35.9359 58.5219 36.7579C58.974 37.6209 59.2 38.4223 59.2 39.1621C59.2 40.1074 58.9457 41.0732 58.4372 42.0596C58.3242 42.265 58.2111 42.4705 58.0981 42.676C57.6461 43.3747 57.081 43.9912 56.4029 44.5255C55.1597 45.6762 53.4927 46.2516 51.402 46.2516L25.2953 46.2516Z" fill="#004DFF"/>
<path d="M25.2953 57.4748C24.7868 57.5159 24.3064 57.5776 23.8544 57.6598C23.4588 57.783 23.0915 57.9063 22.7525 58.0296C22.4134 58.1529 22.1026 58.2968 21.8201 58.4612C21.5376 58.6256 21.2833 58.7694 21.0572 58.8927C20.8877 59.0571 20.7182 59.2215 20.5487 59.3859C20.3791 59.5503 20.2379 59.6941 20.1249 59.8174C20.0118 59.9407 19.9271 60.0435 19.8706 60.1257C19.8141 60.249 19.7576 60.3312 19.7011 60.3722C19.7011 60.4544 19.7011 60.4955 19.7011 60.4955L19.7011 57.4748L19.7011 53.2211L19.7011 50.2004C19.7576 50.2826 19.8141 50.3648 19.8706 50.447C19.9271 50.5703 20.0966 50.7758 20.3791 51.0635C20.6617 51.3923 20.9725 51.6799 21.3115 51.9265C21.7071 52.2142 22.2439 52.4814 22.922 52.728C23.6566 52.9745 24.4477 53.1389 25.2953 53.2211L50.8086 53.2211C52.2778 53.2211 53.4362 52.5636 54.2839 51.2484L54.7924 50.0155L56.6572 53.2211L59.2 57.4748L51.3172 57.4748L25.2953 57.4748ZM69.3714 59.6325C69.654 60.0024 69.9365 60.3517 70.2191 60.6805C69.9365 60.4339 69.654 60.0846 69.3714 59.6325ZM69.3714 59.6325C68.6368 58.7694 68.0153 57.968 67.5067 57.2282C67.0546 56.5296 66.6591 55.7692 66.32 54.9473C65.981 54.1253 65.8114 53.3033 65.8114 52.4814C65.868 51.6594 66.1222 50.8374 66.5743 50.0155L70.7276 53.5294C68.3543 55.461 67.9022 57.4954 69.3714 59.6325Z" fill="#004DFF"/>
<path d="M25.1258 68.4861C23.7696 68.6094 22.6112 68.9382 21.6506 69.4725C20.7464 70.0068 20.1531 70.4589 19.8706 70.8287C19.6445 71.1986 19.5315 71.4247 19.5315 71.5069L19.5315 61.2117C19.5315 61.2528 19.5315 61.2939 19.5315 61.335C19.588 61.4172 19.6728 61.5405 19.7858 61.7049C19.9553 61.9104 20.1249 62.0953 20.2944 62.2597C20.4639 62.4241 20.6899 62.6091 20.9725 62.8146C21.3115 63.0611 21.6506 63.2666 21.9896 63.431C22.3852 63.5954 22.8372 63.7393 23.3458 63.8626C23.9109 64.027 24.5042 64.1503 25.1258 64.2324L53.9448 64.2324L68.4391 64.2324C69.9083 64.2324 71.0384 63.5749 71.8295 62.2597L72.4229 61.0268L74.2876 64.2324L76.8305 68.4861L68.9476 68.4861L58.4372 68.4861L25.1258 68.4861Z" fill="#004DFF"/>
<path d="M25.1258 79.6236C23.7696 79.7469 22.6112 80.0757 21.6506 80.61C20.7464 81.1443 20.1531 81.5964 19.8706 81.9662C19.6445 82.3361 19.5315 82.5622 19.5315 82.6444L19.5315 72.3492C19.5315 72.3903 19.5315 72.4314 19.5315 72.4725C19.588 72.5547 19.6728 72.678 19.7858 72.8424C19.9553 73.0479 20.1249 73.2328 20.2944 73.3972C20.4639 73.5616 20.6899 73.7466 20.9725 73.9521C21.3115 74.1986 21.6506 74.4041 21.9896 74.5685C22.3852 74.7329 22.8372 74.8768 23.3458 75.0001C23.9109 75.1645 24.5042 75.2878 25.1258 75.37L53.9448 75.37L68.4391 75.37C69.9083 75.37 71.0384 74.7124 71.8295 73.3972L72.4229 72.1643L74.2876 75.37L76.8305 79.6236L68.9476 79.6236L58.4372 79.6236L25.1258 79.6236Z" fill="#004DFF"/>
<path d="M19.7011 101.938L19.7011 102L19.6163 102L19.7011 101.938ZM19.7011 107.425C15.3499 107.425 12.7506 107.425 11.903 107.425C9.2471 107.425 7.80615 107.404 7.58012 107.363C6.39346 107.281 5.40457 107.075 4.61346 106.747C4.38743 106.664 4.16139 106.562 3.93536 106.438C2.40965 105.699 1.33601 104.671 0.714421 103.356C0.657913 103.356 0.629659 103.315 0.629659 103.233C0.573151 103.192 0.544898 103.151 0.544898 103.109C-0.30272 101.137 -0.161451 98.938 0.968705 96.5131C1.42077 95.4446 1.98585 94.4788 2.66394 93.6157C2.66394 93.6157 2.7487 93.513 2.91823 93.3075C3.03124 93.1431 3.17251 92.9581 3.34203 92.7526C3.45505 92.5472 3.62458 92.3006 3.85061 92.0129C4.07664 91.7663 4.30267 91.5197 4.5287 91.2731C4.69822 91.0676 4.896 90.8621 5.12203 90.6566C5.29155 90.4511 5.46108 90.2867 5.6306 90.1634C5.74362 90.0812 5.82838 90.0402 5.88488 90.0402L10.8858 93.8623C7.72139 94.8487 5.34807 95.8145 3.76585 96.7597C2.18363 97.705 1.42077 98.527 1.47727 99.2256C1.47727 99.9654 1.95759 100.602 2.91823 101.137C3.87886 101.712 5.15029 102.164 6.73251 102.493C8.31473 102.822 10.0382 103.048 11.903 103.171L26.6515 103.171C24.3347 100.787 22.7807 99.1434 21.9896 98.2393C19.2772 95.4035 18.4861 92.7732 19.6163 90.3484C20.4074 88.5812 21.7918 87.2866 23.7696 86.4646C24.2782 86.2591 24.8998 86.0947 25.6344 85.9714C26.369 85.8892 26.9058 85.8276 27.2448 85.7865C27.6404 85.7865 28.3467 85.7865 29.3639 85.7865C30.381 85.8276 30.9744 85.8481 31.1439 85.8481C32.161 85.8481 35.2407 85.8481 40.3829 85.8481L50.8086 85.8481C52.2778 85.8481 53.4362 85.1905 54.2839 83.8754L54.7924 82.6424L56.6572 85.8481L59.2 90.1018C59.2 90.1018 58.9175 90.1018 58.3524 90.1018C57.8438 90.1018 57.194 90.1018 56.4029 90.1018C55.6683 90.1018 54.9054 90.1018 54.1143 90.1018C53.3797 90.1018 52.7299 90.1018 52.1648 90.1018L51.3172 90.1018L31.3982 90.1018C30.8331 90.1018 30.1833 90.1429 29.4487 90.2251C28.7706 90.3484 28.0077 90.5333 27.1601 90.7799C26.369 91.0676 25.6061 91.3964 24.8715 91.7663C24.1934 92.1773 23.6283 92.691 23.1763 93.3075C22.7807 93.965 22.583 94.6637 22.583 95.4035C22.583 96.1844 22.9503 97.1091 23.6849 98.1776C24.4195 99.2873 25.4931 100.459 26.9058 101.692L28.262 102.678C28.5445 102.883 28.9683 103.048 29.5334 103.171L50.8086 103.171C52.2778 103.13 53.4362 102.452 54.2839 101.137L54.7924 99.9654L56.6572 103.171L59.2 107.363L59.2 107.425C59.2 107.425 58.9175 107.425 58.3524 107.425C57.8438 107.425 57.194 107.425 56.4029 107.425C55.6683 107.425 54.9054 107.425 54.1143 107.425C53.3797 107.425 52.7299 107.425 52.1648 107.425L51.3172 107.425L28.0077 107.425L19.7011 107.425Z" fill="#004DFF"/>
<path d="M25.2953 132.066C24.7868 132.107 24.3064 132.169 23.8544 132.251C23.4588 132.374 23.0915 132.498 22.7525 132.621C22.4134 132.744 22.1026 132.888 21.8201 133.052C21.5376 133.217 21.2833 133.361 21.0572 133.484C20.8877 133.648 20.7182 133.813 20.5487 133.977C20.3791 134.141 20.2379 134.285 20.1249 134.409C20.0118 134.532 19.9271 134.635 19.8706 134.717C19.8141 134.84 19.7576 134.922 19.7011 134.963C19.7011 135.046 19.7011 135.087 19.7011 135.087L19.7011 132.066L19.7011 127.812L19.7011 124.792C19.7576 124.874 19.8141 124.956 19.8706 125.038C19.9271 125.161 20.0966 125.367 20.3791 125.655C20.6617 125.983 20.9725 126.271 21.3115 126.518C21.7071 126.805 22.2439 127.073 22.922 127.319C23.6566 127.566 24.4477 127.73 25.2953 127.812L50.8086 127.812C52.2778 127.812 53.4362 127.155 54.2838 125.84L54.7924 124.607L56.6572 127.812L59.2 132.066L51.3172 132.066L25.2953 132.066ZM69.3714 134.224C69.654 134.594 69.9365 134.943 70.2191 135.272C69.9365 135.025 69.654 134.676 69.3714 134.224ZM69.3714 134.224C68.6368 133.361 68.0153 132.559 67.5067 131.819C67.0546 131.121 66.6591 130.36 66.32 129.538C65.981 128.716 65.8114 127.895 65.8114 127.073C65.868 126.251 66.1222 125.429 66.5743 124.607L70.7276 128.121C68.3543 130.052 67.9022 132.087 69.3714 134.224Z" fill="#004DFF"/>
<path d="M30.7201 154.544C28.7988 154.79 26.9058 154.626 25.041 154.051C23.2328 153.516 21.7918 152.653 20.7182 151.461C19.588 150.023 19.0512 148.215 19.1077 146.036C19.1642 143.858 19.6445 141.783 20.5487 139.81L22.1591 136.543L30.4658 136.543C29.5617 136.543 28.0077 136.995 25.8039 137.899C23.6001 138.844 22.2722 139.543 21.8201 139.995C19.1077 146.653 20.5769 150.208 26.2277 150.66C26.8493 150.701 27.4709 150.66 28.0925 150.537C28.714 150.454 29.3356 150.249 29.9572 149.92C30.6353 149.591 31.2286 149.283 31.7372 148.995C32.2458 148.708 32.8391 148.276 33.5172 147.701C34.2518 147.167 34.8169 146.735 35.2125 146.406C35.608 146.119 36.1448 145.667 36.8229 145.05C37.5575 144.434 38.0378 144.023 38.2639 143.817C38.942 143.242 39.4505 142.79 39.7896 142.461C40.1851 142.173 40.722 141.762 41.4001 141.228C42.1347 140.694 42.7845 140.242 43.3496 139.872C43.9147 139.502 44.5645 139.132 45.2991 138.762C46.0337 138.392 46.74 138.084 47.4181 137.837C49.4524 137.139 51.515 137.015 53.6058 137.467C55.7531 137.961 57.3353 138.824 58.3524 140.057C59.4261 141.29 59.9064 142.954 59.7934 145.05C59.6803 147.886 58.7762 150.722 57.081 153.557C56.4594 153.557 55.2445 153.516 53.4362 153.434C51.628 153.393 50.4131 153.372 49.7915 153.372C50.6391 153.331 51.967 152.9 53.7753 152.078C55.5835 151.256 56.7702 150.578 57.3353 150.043C57.6178 149.509 57.8721 148.811 58.0981 147.947C58.6632 145.893 58.6632 144.29 58.0981 143.139C57.8156 142.522 57.2788 142.029 56.4876 141.659C55.753 141.29 54.9054 141.105 53.9448 141.105C52.1365 141.105 50.187 141.988 48.0962 143.755C46.2315 145.317 44.3102 146.858 42.3324 148.379C42.0499 148.543 41.5978 148.872 40.9763 149.365C40.3547 149.859 39.8461 150.228 39.4505 150.475C39.1115 150.763 38.6594 151.091 38.0944 151.461C37.5858 151.872 37.049 152.222 36.4839 152.509C35.9753 152.797 35.4667 153.064 34.9582 153.311C33.5455 153.968 32.1328 154.379 30.7201 154.544Z" fill="#004DFF"/>
<path d="M25.1258 162.824C23.7696 162.947 22.6112 163.276 21.6506 163.81C20.7464 164.344 20.1531 164.797 19.8706 165.166C19.6445 165.536 19.5315 165.762 19.5315 165.845L19.5315 155.549C19.5315 155.59 19.5315 155.632 19.5315 155.673C19.588 155.755 19.6728 155.878 19.7858 156.043C19.9553 156.248 20.1249 156.433 20.2944 156.597C20.4639 156.762 20.6899 156.947 20.9725 157.152C21.3115 157.399 21.6506 157.604 21.9896 157.769C22.3852 157.933 22.8372 158.077 23.3458 158.2C23.9109 158.365 24.5042 158.488 25.1258 158.57L53.9448 158.57L68.4391 158.57C69.9083 158.57 71.0384 157.913 71.8295 156.597L72.4229 155.364L74.2876 158.57L76.8305 162.824L68.9476 162.824L58.4372 162.824L25.1258 162.824Z" fill="#004DFF"/>
<path d="M36.7382 172.37C36.5686 172.041 36.2013 171.774 35.6363 171.569C30.8896 172.308 27.1036 173.665 24.2782 175.637C21.5093 177.61 20.5204 179.521 21.3115 181.371C21.9331 182.85 23.6283 184.042 26.3972 184.946L27.5839 188.583C25.9452 187.844 24.5325 186.981 23.3458 185.994C22.1591 185.008 21.2268 183.898 20.5487 182.665C19.8706 181.473 19.5315 180.24 19.5315 178.966C19.5315 175.596 21.5093 172.719 25.4649 170.336C29.4769 167.993 34.2801 166.822 39.8743 166.822C43.5474 166.822 46.9378 167.356 50.0458 168.425C53.2102 169.534 55.6965 171.014 57.5048 172.863C59.313 174.713 60.2172 176.747 60.2172 178.966C60.2172 180.528 59.7086 182.008 58.6915 183.405C57.7308 184.802 56.3746 185.974 54.6229 186.919C53.7188 187.412 52.3061 187.946 50.3848 188.522C48.52 189.138 47.4181 189.159 47.0791 188.583L36.7382 172.37ZM37.9248 171.26C37.9248 171.671 38.0943 172.062 38.4334 172.432L49.0286 184.453C49.1981 184.658 50.3565 184.371 52.5038 183.59C53.747 183.097 54.8772 182.521 55.8943 181.864C58.3807 180.179 59.2565 178.453 58.5219 176.685C57.7308 174.836 55.301 173.356 51.2324 172.247C47.1639 171.137 42.728 170.808 37.9248 171.26Z" fill="#004DFF"/>
</svg>
