<svg width="40" height="40" viewBox="0 0 40 40" fill="none" xmlns="http://www.w3.org/2000/svg">
<path fill-rule="evenodd" clip-rule="evenodd" d="M20 0C31.0381 0 40 8.9619 40 20C40 31.0381 31.0381 40 20 40C8.9619 40 0 31.0381 0 20C0 8.9619 8.9619 0 20 0ZM15.5867 9.34477C16.18 7.6962 17.9552 6.43142 20 6.43142C22.0448 6.43142 23.82 7.6962 24.4133 9.34477C25.9991 8.59906 28.1486 8.96 29.5943 10.4057C31.04 11.8514 31.401 14.0009 30.6552 15.5867C32.3038 16.18 33.5686 17.9552 33.5686 20C33.5686 22.0448 32.3038 23.82 30.6552 24.4133C31.401 25.9991 31.04 28.1486 29.5943 29.5943C28.1486 31.04 25.9991 31.4009 24.4133 30.6552C23.82 32.3038 22.0448 33.5686 20 33.5686C17.9552 33.5686 16.18 32.3038 15.5867 30.6552C14.0009 31.4009 11.8514 31.04 10.4057 29.5943C8.96 28.1486 8.59905 25.9991 9.34476 24.4133C7.69619 23.82 6.43143 22.0448 6.43143 20C6.43143 17.9552 7.69619 16.18 9.34476 15.5867C8.59905 14.0009 8.96 11.8514 10.4057 10.4057C11.8514 8.96 14.0009 8.59906 15.5867 9.34477Z" fill="#0057FF"/>
</svg>
