<svg xmlns="http://www.w3.org/2000/svg" viewBox="0 0 88.91 234.7"><defs><style>.cls-1{fill:#0004ff;}</style></defs><g id="レイヤー_2" data-name="レイヤー 2"><g id="レイヤー_1-2" data-name="レイヤー 1"><path class="cls-1" d="M31.83,26.65c-5.62-2.71-9.24-7-9.24-11.8C22.59,6.65,33.1,0,46.08,0S69.55,6.65,69.55,14.85a11.25,11.25,0,0,1-3.68,8h0a17.5,17.5,0,0,0-2.38,3.59l-.9-1h0l-3.72-4.26c6.41-2.33,10-5.8,8.73-9.08C65.73,7.43,54.28,4,42.4,5.62s-19.69,7.54-17.84,12.2c.72,1.81,2.85,3.29,5.88,4.33Z"/><path class="cls-1" d="M22.74,61.26V48.64s1.23,3.15,6.45,3.71H54.24c3.8,0,17.43-3.2,5.12-14.19l-1.51-1.25a3.67,3.67,0,0,0-2.26-.62H29.19C24,36.86,22.74,40,22.74,40V27.39s1.23,3.14,6.45,3.7H79.25a4.53,4.53,0,0,0,4-2.42l.64-1.48h0L86,31.08h0l2.89,5.2H59.67l.38.29L64,41c2.11,2.4,4.34,4.81,4.37,7.81a8.09,8.09,0,0,1-.84,3.5c-.13.25-.26.51-.41.75a9.17,9.17,0,0,1-2,2.32,7.5,7.5,0,0,1-5.79,2.13H29.19C24,58.11,22.74,61.26,22.74,61.26Z"/><path class="cls-1" d="M76.85,62.12l4.87,4.29c-3.5,3-2.62,5.9-1.63,7.49C77.07,70.08,74.94,66.22,76.85,62.12ZM22.74,75V71.25h0V66.06h0v-3.7s1.23,3.14,6.45,3.7h29.5a4.49,4.49,0,0,0,4-2.42l.65-1.48h0l2.17,3.91,2.88,5.19v0l-9,0H29.18C24,71.82,22.74,75,22.74,75Zm58.39.22a6.06,6.06,0,0,1-1-1.28C80.43,74.33,80.77,74.75,81.13,75.18Z"/><path class="cls-1" d="M22.54,88.46V75.85S23.78,79,29,79.56H62.34v0H79.05a4.53,4.53,0,0,0,4-2.42l.65-1.48h0l2.17,3.9h0l2.88,5.2H29C23.78,85.32,22.54,88.46,22.54,88.46Z"/><path class="cls-1" d="M22.54,102.13V89.51s1.24,3.14,6.45,3.71H62.34v0H79.05a4.5,4.5,0,0,0,4-2.41l.65-1.49h0l2.17,3.9h0l2.88,5.2h0v0l-9,0H67.52v0H29C23.78,99,22.54,102.12,22.54,102.13Z"/><path class="cls-1" d="M13.75,133.43c-1.66,0-3.39.11-5.05,0a10.71,10.71,0,0,1-3.42-.77,7.61,7.61,0,0,1-.81-.4A8.08,8.08,0,0,1,.75,128.5l-.16-.29h0a10.52,10.52,0,0,1,.44-8.13,18.55,18.55,0,0,1,2-3.52c.27-.37,3.13-4.59,3.75-4.38l5.81,4.68c-19.48,6.27-9.09,10.85,1.09,11.35h17c-.45-.49-3.87-4.24-5.39-6-2.56-2.88-4.22-6.18-2.73-9.67a9.35,9.35,0,0,1,4.83-4.76c2.6-1.12,5.64-.8,8.48-.79H58.71a4.47,4.47,0,0,0,3.94-2.41l.65-1.49,2.17,3.9,2.88,5.2s-9,0-9,0-23.09,0-23.09,0c-3.8,0-17.44,3.21-5.13,14.2l1.51,1.25a3.23,3.23,0,0,0,1.47.55H58.72a4.52,4.52,0,0,0,3.94-2.42l.64-1.48h0l2.17,3.9h0l2.89,5.2h0l0,.05H22.74v0Zm9-6.61-.09,0,.09,0Z"/><path class="cls-1" d="M76.85,154.44l4.87,4.29c-3.5,3.05-2.62,5.9-1.63,7.49C77.07,162.4,74.94,158.53,76.85,154.44ZM22.74,167.28v-3.71h0v-5.2h0v-3.71s1.23,3.15,6.45,3.71h29.5a4.49,4.49,0,0,0,4-2.42l.65-1.48h0l2.17,3.9,2.88,5.2H29.18C24,164.14,22.74,167.28,22.74,167.28Zm58.39.22a6.06,6.06,0,0,1-1-1.28C80.43,166.65,80.77,167.07,81.13,167.5Z"/><path class="cls-1" d="M23.92,187.38c-2.77-3.2-2.17-9.85-.24-14.3.17-.39,1.87-4,1.87-4h9.61c-2.23,0-9,3.21-10,4.25-2.36,6.07-3.08,12.35,5.11,13,5,.42,10.18-5.07,13.88-8.39,2.73-2.44,6.46-5.78,10.59-7.34,4.58-1.74,10.36-.16,12.66,2.75a8.77,8.77,0,0,1,1.64,6.09,23.43,23.43,0,0,1-3.14,10.42c-2.19,0-6.28-.22-8.47-.23,2.21-.1,7.57-2.84,8.8-4a13.41,13.41,0,0,0,.88-2.62c.45-1.87.81-4,0-5.83-.7-1.59-2.71-2.51-4.88-2.51-2.86,0-5,1.75-6.72,3.26q-3.23,2.88-6.66,5.61c-2.63,2.1-5.29,4.5-8.51,6.07a16.3,16.3,0,0,1-4.9,1.52C31,191.75,26.41,190.24,23.92,187.38Z"/><path class="cls-1" d="M22.54,205.77V193.15s1.24,3.15,6.45,3.71H79.05a4.53,4.53,0,0,0,4-2.42l.65-1.48h0l2.17,3.91h0L88.7,202h0v0H67.52v0H29C23.78,202.62,22.54,205.77,22.54,205.77Z"/><path class="cls-1" d="M41.13,213.4c-11.15,1.82-18.36,7.51-16.57,12,.72,1.8,2.85,3.29,5.88,4.33l1.39,4.5c-5.62-2.71-9.24-7-9.24-11.8,0-8.21,10.51-14.85,23.49-14.85s23.47,6.64,23.47,14.85c0,3.85-2.42,7.46-6.42,9.76-1.06.61-7.84,3.63-8.8,2-.1-.15-11.91-19.87-11.91-19.87A2,2,0,0,0,41.13,213.4Zm3.22,1,12.23,14.73c.29.35,3.6-.9,4-1.06a18.53,18.53,0,0,0,4-2.13c2.23-1.61,4-3.91,3-6.32-1.78-4.47-12.42-7.77-23.79-6.62A2.32,2.32,0,0,0,44.35,214.44Z"/></g></g></svg>