<svg xmlns="http://www.w3.org/2000/svg" viewBox="0 0 238.7 90.42"><defs><style>.cls-1{fill:#fff;}</style></defs><g id="レイヤー_2" data-name="レイヤー 2"><g id="レイヤー_1-2" data-name="レイヤー 1"><path class="cls-1" d="M27.1,58.05c-2.75,5.71-7.1,9.4-12,9.4C6.76,67.45,0,56.76,0,43.56S6.76,19.68,15.1,19.68a11.46,11.46,0,0,1,8.12,3.75h0a17.6,17.6,0,0,0,3.65,2.42l-1,.92h0l-4.34,3.78c-2.37-6.52-5.9-10.21-9.23-8.89C7.55,23.57,4.11,35.21,5.71,47.3s7.67,20,12.41,18.15c1.84-.74,3.35-2.9,4.41-6Z"/><path class="cls-1" d="M62.3,67.29H49.47s3.2-1.25,3.77-6.55h0V35.26c0-3.86-3.25-17.73-14.43-5.21l-1.27,1.54a3.71,3.71,0,0,0-.63,2.29V60.73h0c.58,5.3,3.77,6.55,3.77,6.55H27.85s3.2-1.25,3.77-6.55h0V26.81h0v-17a4.58,4.58,0,0,0-2.46-4l-1.51-.66h0l4-2.21h0L36.89,0h0V9.2h0V21.55h0v8.18l.29-.39c1.52-1.33,3-2.66,4.54-4,2.44-2.14,4.89-4.42,7.95-4.44a8.21,8.21,0,0,1,3.55.85c.26.13.52.27.77.42a9.43,9.43,0,0,1,2.36,2,7.68,7.68,0,0,1,2.16,5.89V60.73h0C59.1,66,62.3,67.29,62.3,67.29Z"/><path class="cls-1" d="M63.18,12.26l4.36-4.95c3.1,3.56,6,2.67,7.62,1.66C71.28,12,67.34,14.21,63.18,12.26Zm13.05,55h-9v0H63.41S66.6,66,67.18,60.74v-30h0a4.6,4.6,0,0,0-2.46-4l-1.51-.65h0l4-2.2,5.29-2.94h0V60.75C73,66,76.24,67.3,76.23,67.29Zm.24-59.38A7,7,0,0,1,75.16,9Z"/><path class="cls-1" d="M90,67.49H77.14s3.2-1.25,3.77-6.55h0V27h0V10a4.58,4.58,0,0,0-2.46-4l-1.51-.66h0l4-2.21h0L86.18.21h0l0,9.2h0V21.75h0V60.93h0C86.77,66.24,90,67.49,90,67.49Z"/><path class="cls-1" d="M103.87,67.49H91s3.19-1.25,3.77-6.55h0V27h0V10a4.56,4.56,0,0,0-2.46-4l-1.5-.66h0l4-2.21h0L100.08.21h0V9.4h0V21.75h0V60.93h0C100.67,66.24,103.86,67.49,103.87,67.49Z"/><path class="cls-1" d="M135.7,76.44c0,1.69.12,3.45,0,5.13a10.81,10.81,0,0,1-.78,3.48,8.92,8.92,0,0,1-.4.82,8.29,8.29,0,0,1-3.81,3.79l-.29.16v0a10.8,10.8,0,0,1-8.28-.44,19.88,19.88,0,0,1-3.58-2c-.37-.27-4.66-3.18-4.45-3.81l4.76-5.91c6.38,19.81,11,9.25,11.55-1.12V59.16c-.5.45-4.32,3.93-6.08,5.48-2.94,2.6-6.3,4.29-9.84,2.78a9.49,9.49,0,0,1-4.84-4.92c-1.14-2.64-.81-5.73-.81-8.62,0-3.62,0-7.26,0-10.88V30.71a4.59,4.59,0,0,0-2.46-4L104.87,26l4-2.2,5.28-2.94s0,9.19,0,9.19,0,23.48,0,23.48c0,3.87,3.26,17.74,14.44,5.22l1.27-1.54a3.26,3.26,0,0,0,.57-1.49V30.7a4.6,4.6,0,0,0-2.46-4L126.43,26h0l4-2.21h0l5.28-2.93h0v0l0,0s0,9.19,0,9.19V57.58h0v9.71h0C135.7,70.34,135.69,73.39,135.7,76.44ZM129,67.28l0,.09,0-.09Z"/><path class="cls-1" d="M157.08,12.26l4.36-4.95c3.1,3.56,6,2.67,7.61,1.66C165.17,12,161.24,14.21,157.08,12.26Zm13,55h-9.06v0H157.3s3.2-1.25,3.77-6.55v-30h0a4.6,4.6,0,0,0-2.46-4l-1.5-.65h0l4-2.2,5.29-2.94h0V60.75C166.94,66,170.13,67.3,170.13,67.29Zm.23-59.38A7,7,0,0,1,169.05,9Z"/><path class="cls-1" d="M190.57,66.09c-3.25,2.82-10,2.21-14.54.25L172,64.44V54.66c0,2.27,3.26,9.15,4.32,10.14,6.17,2.4,12.57,3.13,13.27-5.19.43-5.07-5.16-10.36-8.54-14.13-2.48-2.77-5.87-6.56-7.47-10.76-1.76-4.66-.16-10.54,2.81-12.88a9,9,0,0,1,6.19-1.67,23.86,23.86,0,0,1,10.6,3.2c0,2.23-.23,6.38-.24,8.61-.1-2.24-2.89-7.7-4.11-8.95a13.49,13.49,0,0,0-2.66-.9c-1.9-.46-4-.82-5.93,0-1.62.72-2.55,2.77-2.55,5,0,2.91,1.77,5.1,3.31,6.83q2.92,3.28,5.71,6.77c2.13,2.68,4.58,5.39,6.17,8.66a16.64,16.64,0,0,1,1.55,5C195,58.87,193.48,63.56,190.57,66.09Z"/><path class="cls-1" d="M209.27,67.49H196.45s3.19-1.25,3.77-6.55h0V27h0V10a4.58,4.58,0,0,0-2.46-4l-1.51-.66h0l4-2.21h0L205.49.21h0V9.4h0V21.75h0V60.93h0C206.08,66.24,209.27,67.49,209.27,67.49Z"/><path class="cls-1" d="M217,48.59c1.86,11.34,7.65,18.67,12.22,16.86,1.83-.74,3.34-2.9,4.41-6l4.57-1.41c-2.76,5.71-7.11,9.4-12,9.4-8.34,0-15.11-10.69-15.11-23.89s6.77-23.88,15.11-23.88c3.92,0,7.59,2.46,9.93,6.54.62,1.07,3.69,8,2.07,9L218,47.28A2.1,2.1,0,0,0,217,48.59Zm1.06-3.27,15-12.45c.35-.29-.92-3.65-1.08-4.08a19.12,19.12,0,0,0-2.17-4c-1.63-2.27-4-4.07-6.43-3.09-4.54,1.82-7.9,12.64-6.73,24.2A2.29,2.29,0,0,0,218.09,45.32Z"/></g></g></svg>